<svg width="46" height="45" viewBox="0 0 46 45" fill="none" xmlns="http://www.w3.org/2000/svg">
  <g>
    <rect x="3" y="0.863281" width="40" height="43.1367" rx="8" fill="#00a8cc" fill-opacity="0.1" stroke="#00a8cc" stroke-width="2"/>
    <path d="M23 12.8633C20.7909 12.8633 19 14.6542 19 16.8633V19.8633H17C15.8954 19.8633 15 20.7587 15 21.8633V33.8633C15 34.9679 15.8954 35.8633 17 35.8633H29C30.1046 35.8633 31 34.9679 31 33.8633V21.8633C31 20.7587 30.1046 19.8633 29 19.8633H27V16.8633C27 14.6542 25.2091 12.8633 23 12.8633ZM23 14.8633C24.1046 14.8633 25 15.7587 25 16.8633V19.8633H21V16.8633C21 15.7587 21.8954 14.8633 23 14.8633Z" fill="#00a8cc"/>
    <circle cx="23" cy="27.8633" r="2" fill="#00a8cc"/>
    <rect x="22" y="29.8633" width="2" height="4" fill="#00a8cc"/>
  </g>
</svg>