<svg width="46" height="45" viewBox="0 0 46 45" fill="none" xmlns="http://www.w3.org/2000/svg" class="size-12"><g><rect x="3" y="0.863281" width="40" height="40" rx="20" fill="url(#paint0_linear_1_4905)"/><path fill-rule="evenodd" clip-rule="evenodd" d="M19.0736 7.30078H18.5513C17.4523 7.40753 16.5515 7.91698 15.6382 8.43349L15.6382 8.4335C15.3095 8.61938 14.9792 8.80617 14.6375 8.97544C13.1797 9.69771 11.6905 10.3538 10.1701 10.9436C9.31299 11.2764 8.4347 11.5409 7.5352 11.7372C7.4488 11.7559 7.36935 11.7893 7.29688 11.8372V11.8727C7.5102 11.9479 7.76245 11.9888 8.05363 11.9953C8.84267 12.0125 9.51349 12.0095 10.0661 11.9865C10.1506 11.9828 10.2321 11.9633 10.3106 11.928C12.4837 10.9519 14.6612 9.98527 16.8432 9.02797C16.8476 9.02613 16.852 9.02536 16.8565 9.02567C16.8777 9.02843 16.879 9.03427 16.8603 9.04318C14.6862 10.108 12.5139 11.176 10.3434 12.2473C10.2138 12.3114 9.41474 12.7999 9.89472 12.9132C10.6648 13.0953 11.6052 13.0639 12.3886 12.9939C12.4952 12.9843 12.6 12.9582 12.7029 12.9155C14.1157 12.3278 15.0315 11.9343 15.4503 11.7349C15.5082 11.7069 15.5663 11.6793 15.6245 11.6519C16.9222 11.0378 16.9367 11.0651 15.6682 11.734C14.7886 12.1972 13.894 12.6323 12.9844 13.039C12.7769 13.1321 11.6328 13.7584 12.3364 13.9538C12.4725 13.9916 12.6016 14.0121 12.7238 14.0155C13.3976 14.0333 14.0708 13.9567 14.7434 13.7856C14.8605 13.7558 14.9747 13.7083 15.0861 13.6432C15.7916 13.2327 16.4885 12.8092 17.1769 12.3727C17.1826 12.3694 17.2268 12.3621 17.1921 12.3879C16.5905 12.8389 15.9774 13.2745 15.3529 13.6948C15.2118 13.7897 15.1129 13.8702 15.0562 13.9363C14.891 14.1289 14.5539 14.61 15.0282 14.733C15.5751 14.8745 16.5412 14.457 17.0397 14.2275C17.4891 14.0207 17.9114 13.6074 18.2623 13.264L18.2623 13.264L18.2623 13.264L18.2817 13.245C18.3135 13.2141 18.3187 13.2542 18.3011 13.2736C18.0812 13.5218 17.8525 13.7621 17.6151 13.9943C17.442 14.1642 17.3197 14.3066 17.2481 14.4215C16.2811 15.9736 18.2741 15.2192 18.7317 14.9459C19.0251 14.7708 19.3157 14.3372 19.4771 14.0773C19.4847 14.065 19.4923 14.055 19.4999 14.0473C19.5306 14.016 19.5374 14.0203 19.5203 14.0602C19.395 14.3536 19.2423 14.6318 19.0622 14.8948C18.8756 15.1671 18.9696 15.539 19.3333 15.6045C19.9746 15.7197 20.5823 15.1432 20.8306 14.6275C20.8349 14.6186 20.8427 14.6117 20.8525 14.6082C20.917 14.5857 20.7513 14.9203 20.694 15.036L20.694 15.036L20.694 15.036C20.6842 15.0557 20.6777 15.069 20.6759 15.0731C20.6145 15.2129 20.5891 15.3212 20.5999 15.398C20.6298 15.6155 20.8211 15.675 21.0262 15.6307C21.5992 15.5072 22.0821 15.0501 22.375 14.569C22.3793 14.5618 22.3816 14.5535 22.3816 14.545C22.3658 13.4218 22.3524 12.6862 22.3413 12.3381C22.3296 11.975 22.3313 11.6482 22.3465 11.3579C22.0265 11.3502 21.7496 11.3301 21.5157 11.2976C21.0295 11.2303 20.8074 10.6556 20.7551 10.2381C20.7421 10.1328 20.7309 10.0254 20.7197 9.91727C20.6412 9.1606 20.5585 8.36393 19.7843 7.94825C18.9876 7.52014 17.6982 7.77544 16.9177 8.14733C16.6867 8.25724 16.4617 8.36722 16.2377 8.47668C15.6119 8.78252 14.9945 9.08425 14.2795 9.36898C14.2774 9.3698 14.2738 9.37189 14.2694 9.37443C14.2515 9.3848 14.2205 9.40273 14.2216 9.37313C14.2217 9.36881 14.2231 9.3646 14.2257 9.36094C14.2282 9.35728 14.2317 9.35432 14.2358 9.35239C15.1708 8.93273 16.0943 8.49064 17.0065 8.02613C17.1644 7.94594 17.3811 7.86514 17.6564 7.78373C18.1853 7.62751 18.7113 7.58097 19.2407 7.65332C20.2115 7.7865 20.6664 8.52659 20.7936 9.39571C20.8053 9.47557 20.8144 9.57357 20.8245 9.68219C20.8751 10.2286 20.9506 11.044 21.5138 11.1708C21.7195 11.2172 21.9931 11.24 22.3346 11.239L22.319 10.9648C22.3183 10.9535 22.3134 10.9428 22.3051 10.9348C22.2969 10.9268 22.2859 10.9221 22.2743 10.9215C22.0977 10.9123 21.9254 10.8988 21.7573 10.881C21.118 10.8134 21.057 9.96774 21.0224 9.48751L21.0186 9.43534C20.9317 8.26069 20.3701 7.38696 19.0736 7.30078ZM23.952 11.3634C23.8584 11.3678 23.7589 11.3724 23.653 11.38C23.6381 12.3764 23.6176 13.3716 23.5913 14.3658C23.5897 14.4355 23.6046 14.4991 23.6359 14.5565C23.8796 14.9977 24.2298 15.3257 24.6866 15.5404C24.9543 15.6667 25.3977 15.7916 25.411 15.3441C25.4132 15.2722 25.3913 15.19 25.345 15.0976C25.309 15.0257 25.2745 14.953 25.2415 14.8796C25.12 14.6105 25.1422 14.5988 25.308 14.8446C25.32 14.8627 25.3322 14.8808 25.3446 14.8989C25.5682 15.2289 26.004 15.6077 26.4317 15.6307C26.8196 15.6515 27.0755 15.5183 27.0323 15.0999C27.0253 15.0332 26.9961 14.9624 26.9445 14.8874C26.7672 14.6318 26.6174 14.3613 26.4949 14.0759L26.4943 14.0738L26.4941 14.0718L26.4944 14.0696L26.495 14.0679C26.4956 14.0667 26.4965 14.0657 26.4975 14.0649C26.4986 14.0641 26.4998 14.0636 26.5011 14.0635L26.5672 14.1485L26.5673 14.1486L26.5674 14.1488L26.5674 14.1488L26.5677 14.1492C26.6999 14.3195 26.9863 14.6884 27.0266 14.7353C27.3186 15.0754 27.8997 15.2694 28.3327 15.357C28.7319 15.4376 29.1806 15.3736 28.9683 14.8455C28.8421 14.5317 28.6996 14.2814 28.4347 14.0395C28.3382 13.951 28.2445 13.8599 28.1537 13.7662C27.6951 13.2931 27.7171 13.2711 28.2197 13.7003C28.3102 13.7774 28.4013 13.8539 28.4931 13.9298C28.9793 14.3317 30.2502 14.833 30.8636 14.7685C31.6346 14.6883 31.016 13.9418 30.7302 13.751C30.1035 13.3332 29.4873 12.9014 28.8815 12.4556C28.8549 12.436 28.8321 12.4183 28.8131 12.4026C28.6852 12.2979 28.6914 12.2899 28.8316 12.3787C29.5276 12.8189 30.2219 13.2412 30.9144 13.6455C31.0305 13.7134 31.1484 13.7628 31.268 13.7939C31.9693 13.9759 32.7478 14.0644 33.4742 14.0114C33.7054 13.9943 34.1014 13.8662 33.7975 13.5685C33.6041 13.379 33.3827 13.2274 33.1333 13.1137C31.7854 12.4989 30.4668 11.8295 29.1777 11.1054C29.1562 11.0931 29.1556 11.0919 29.1758 11.1017C30.5406 11.7493 31.9234 12.3584 33.3242 12.9289C33.4299 12.9719 33.5377 12.9983 33.6475 13.0082C34.366 13.0708 35.0843 13.0631 35.8024 12.9851C35.9493 12.9691 36.092 12.936 36.2306 12.8856C36.3123 12.8561 36.3254 12.8069 36.27 12.7381C36.1149 12.5449 35.9246 12.3923 35.6989 12.2805C33.5565 11.2166 31.4098 10.1608 29.2589 9.11322C29.2543 9.11085 29.2508 9.10674 29.2489 9.1017C29.2432 9.08358 29.2551 9.08097 29.2845 9.09387C31.4317 10.0321 33.5736 10.9814 35.7103 11.9418C35.7891 11.9771 35.8711 11.9968 35.9562 12.0008C36.7203 12.0376 37.4841 12.0329 38.2478 11.9865C38.3953 11.9776 38.5416 11.9545 38.6865 11.9174C38.6968 11.9146 38.7059 11.9086 38.7122 11.9003C38.7186 11.8921 38.7219 11.882 38.7216 11.8717C38.7193 11.7834 38.1676 11.6695 37.9373 11.622C37.889 11.612 37.8548 11.605 37.8429 11.6017C36.9206 11.3479 35.9675 11.0175 34.9835 10.6105C33.3147 9.92014 31.7233 9.21553 30.2369 8.37728L30.1894 8.3505C29.2617 7.82668 28.4334 7.35904 27.32 7.31599C26.1103 7.26898 25.3579 7.74594 25.0849 8.91783C25.0582 9.03241 25.0418 9.19421 25.0233 9.37641C24.962 9.98194 24.8778 10.8128 24.3172 10.8851C24.1165 10.9106 23.9148 10.9249 23.7119 10.928C23.6995 10.9281 23.6877 10.933 23.679 10.9415C23.6703 10.95 23.6654 10.9616 23.6654 10.9736L23.6639 11.239C23.9436 11.2635 24.5864 11.2575 24.7991 11.004C24.9732 10.7963 25.0822 10.5565 25.1262 10.2847C25.1525 10.1221 25.1712 9.96165 25.1897 9.8035L25.1897 9.80346L25.1897 9.80343L25.1898 9.80339L25.1898 9.80335C25.2475 9.31007 25.3026 8.83918 25.5743 8.39709C25.8844 7.89295 26.4303 7.68143 27.0394 7.63903C27.8626 7.58143 28.5885 7.82244 29.3168 8.19341C30.1191 8.60232 30.9333 8.98772 31.7594 9.34963C31.7987 9.36683 31.7968 9.37636 31.7537 9.3782C31.7442 9.37881 31.7347 9.37728 31.7252 9.37359C31.0228 9.10275 30.3289 8.7621 29.6401 8.42402L29.6401 8.42401C29.4476 8.32952 29.2555 8.23523 29.0638 8.14272C28.4684 7.85577 27.8161 7.72428 27.1068 7.74825C25.5838 7.79986 25.3327 8.98235 25.2781 10.204C25.2737 10.3063 25.243 10.4341 25.186 10.5874C24.9148 11.3186 24.5549 11.3354 23.952 11.3634ZM23.9444 8.72196C23.9444 9.22639 23.5231 9.63532 23.0035 9.63532C22.4838 9.63532 22.0625 9.22639 22.0625 8.72196C22.0625 8.21752 22.4838 7.80859 23.0035 7.80859C23.5231 7.80859 23.9444 8.21752 23.9444 8.72196ZM23.4354 19.2164C23.9105 19.0149 24.3602 18.7703 24.7846 18.4828C24.8251 18.4553 24.8743 18.4248 24.9283 18.3913L24.9284 18.3913C25.222 18.2092 25.6559 17.9402 25.5713 17.6136C25.5245 17.4321 25.4047 17.3439 25.2119 17.3491C24.7837 17.3602 24.2111 16.9814 23.9239 16.7012C23.8521 16.6308 23.8443 16.5689 23.9007 16.5155C23.9051 16.5112 23.9087 16.5062 23.9112 16.5006C23.9136 16.495 23.9149 16.4889 23.9149 16.4829C23.915 16.4768 23.9138 16.4707 23.9114 16.4651C23.909 16.4595 23.9055 16.4544 23.9011 16.45C23.8622 16.4116 23.8575 16.3616 23.8869 16.2998C24.017 16.0255 24.2377 15.8758 24.5492 15.851C25.1037 15.8072 25.9763 15.9758 26.1329 16.5869C26.1354 16.5965 26.1411 16.6052 26.1491 16.6118C26.5773 16.9473 26.9367 17.5408 26.8095 18.0874C26.5745 19.0961 25.2513 19.6298 24.364 19.9284C24.3582 19.9304 24.352 19.9313 24.3458 19.931C24.3396 19.9307 24.3335 19.9292 24.3279 19.9265L22.5918 19.121C22.5839 19.1173 22.5772 19.1114 22.5725 19.1042C22.5679 19.097 22.5653 19.0886 22.5652 19.08L22.4123 9.7846C22.4122 9.77796 22.4106 9.77142 22.4077 9.76543C22.4047 9.75945 22.4004 9.75416 22.395 9.74995C22.3897 9.74574 22.3835 9.7427 22.3768 9.74104C22.3701 9.73938 22.3631 9.73915 22.3563 9.74036C22.1819 9.77078 22.0944 9.69121 22.0938 9.50165C22.0938 9.46325 22.1096 9.42731 22.1412 9.39382C22.1455 9.3892 22.1508 9.38549 22.1566 9.38293C22.1625 9.38036 22.1688 9.379 22.1753 9.37891C22.1817 9.37882 22.1882 9.38002 22.1941 9.38243C22.2001 9.38483 22.2055 9.3884 22.2101 9.3929C22.3506 9.53238 22.4834 9.62193 22.6084 9.66156C23.0654 9.80595 23.4566 9.71671 23.782 9.39382C23.7906 9.38522 23.8023 9.38025 23.8147 9.37999C23.827 9.37973 23.839 9.3842 23.848 9.39244C23.8923 9.43238 23.9086 9.48829 23.8969 9.56018C23.8709 9.71901 23.7862 9.77769 23.6429 9.73622C23.6359 9.73416 23.6285 9.73372 23.6213 9.73491C23.6141 9.7361 23.6073 9.7389 23.6014 9.74309C23.5954 9.74728 23.5906 9.75274 23.5872 9.75906C23.5837 9.76538 23.5818 9.77239 23.5816 9.77953C23.5332 11.8247 23.484 13.8507 23.434 15.8574C23.4068 16.9628 23.3851 18.0682 23.3689 19.1735C23.3688 19.1812 23.3707 19.1889 23.3744 19.1957C23.3781 19.2025 23.3835 19.2083 23.3901 19.2126C23.3967 19.2168 23.4044 19.2194 23.4123 19.2201C23.4202 19.2207 23.4281 19.2195 23.4354 19.2164ZM24.835 16.2264C24.8351 16.2149 24.8306 16.2036 24.8218 16.1929C24.8131 16.1823 24.8002 16.1726 24.784 16.1644C24.7677 16.1562 24.7484 16.1497 24.7271 16.1451C24.7058 16.1406 24.683 16.1382 24.6599 16.1381C24.6133 16.1377 24.5686 16.1466 24.5355 16.1627C24.5025 16.1788 24.4838 16.2009 24.4837 16.224C24.4836 16.2354 24.488 16.2468 24.4968 16.2574C24.5055 16.268 24.5184 16.2777 24.5347 16.2859C24.5509 16.2941 24.5702 16.3006 24.5915 16.3052C24.6128 16.3097 24.6356 16.3121 24.6587 16.3123C24.7053 16.3126 24.75 16.3037 24.7831 16.2876C24.8161 16.2715 24.8348 16.2495 24.835 16.2264ZM22.5395 27.688C22.7974 27.91 23.0477 28.1255 23.2629 28.3449C23.4832 28.5698 23.616 28.7142 23.6613 28.7781C24.089 29.3808 23.9048 29.8444 23.4595 30.3583C22.7303 31.1997 21.8197 32.4689 22.5352 33.6071C22.5412 33.6166 22.5477 33.6232 22.5546 33.6269C22.5822 33.6423 22.5917 33.6352 22.5831 33.6057C22.5701 33.5611 22.5561 33.516 22.542 33.4706L22.5419 33.4705C22.478 33.2647 22.4119 33.0515 22.4212 32.8458C22.4667 31.8631 23.2106 31.1761 23.8923 30.5466L23.8977 30.5417C24.3421 30.1311 24.7114 29.4154 24.4147 28.8343C24.2678 28.5464 24.0542 28.2661 23.7738 27.9933C23.6245 27.8483 23.4709 27.704 23.3163 27.5588L23.3158 27.5583L23.3156 27.5581C22.8037 27.0774 22.2819 26.5872 21.8762 26.0324C21.4185 25.4066 21.8681 24.8541 22.3733 24.4758C22.8926 24.0867 23.4595 23.7381 24.0261 23.3896C24.3085 23.216 24.5908 23.0423 24.8671 22.8638C25.4539 22.4845 26.0217 21.8458 25.65 21.1149C25.5538 20.9254 25.4164 20.7662 25.2379 20.6375C24.5536 20.1439 23.7116 19.77 22.9035 19.411L22.9035 19.411L22.9035 19.411C22.721 19.3299 22.5402 19.2496 22.3633 19.1689C21.7793 18.902 21.3535 18.6384 20.8303 18.2924L20.8066 18.2767C20.6006 18.141 20.3765 17.9934 20.3285 17.7583C20.2899 17.5678 20.3812 17.4277 20.6024 17.338C20.6123 17.3341 20.6231 17.3334 20.6333 17.3361C20.9841 17.4292 21.8952 16.9131 22.0371 16.5887C22.0414 16.579 22.0422 16.5682 22.0392 16.558C22.0363 16.5479 22.0299 16.539 22.021 16.5329L22.0001 16.5186C21.9942 16.5146 21.9893 16.5092 21.9858 16.5031C21.9823 16.4969 21.9804 16.49 21.9801 16.483C21.9797 16.476 21.9811 16.469 21.984 16.4625C21.9869 16.4561 21.9913 16.4504 21.9968 16.4458L22.0248 16.4228C22.0318 16.417 22.037 16.4094 22.0396 16.4009C22.0422 16.3924 22.0422 16.3833 22.0395 16.3748C21.7775 15.5076 20.282 15.8191 19.877 16.3426C19.8384 16.3924 19.82 16.4381 19.802 16.483C19.7768 16.5457 19.7523 16.6067 19.6743 16.6744C19.3616 16.9457 19.1643 17.2791 19.0823 17.6748C18.9133 18.4924 19.8647 19.2108 20.5056 19.5251C20.6183 19.5801 20.9115 19.6953 21.3853 19.8707C22.0094 20.1014 22.6347 20.3295 23.2611 20.555C23.7097 20.7163 25.3281 21.4896 24.4038 22.1163C24.0499 22.356 23.2622 22.9088 22.0405 23.7748C21.6914 24.0222 21.384 24.3295 21.1185 24.697C20.7273 25.2389 20.8094 25.7191 21.1707 26.2716C21.5263 26.8156 22.0467 27.2636 22.5395 27.688ZM21.4001 16.1957C21.4087 16.2063 21.413 16.2176 21.4128 16.2289H21.4128C21.4126 16.2403 21.4079 16.2514 21.3989 16.2617C21.39 16.272 21.3769 16.2813 21.3606 16.289C21.3442 16.2967 21.3248 16.3028 21.3035 16.3067C21.2823 16.3107 21.2595 16.3126 21.2366 16.3122C21.1902 16.3114 21.146 16.3015 21.1135 16.2848C21.0811 16.2681 21.0631 16.2459 21.0635 16.223C21.0637 16.2117 21.0684 16.2006 21.0773 16.1903C21.0863 16.18 21.0993 16.1707 21.1157 16.163C21.1321 16.1552 21.1514 16.1492 21.1727 16.1453C21.194 16.1413 21.2168 16.1394 21.2397 16.1398C21.2626 16.1402 21.2853 16.1428 21.3064 16.1475C21.3276 16.1522 21.3467 16.1589 21.3628 16.1672C21.3788 16.1754 21.3915 16.1851 21.4001 16.1957ZM21.7927 23.3472L21.7925 23.3472C21.1373 22.9721 20.2923 22.4884 20.1631 21.7698C20.0231 20.9905 20.9151 20.3854 21.566 20.1057C21.5773 20.1007 21.5901 20.1002 21.6016 20.1043L23.2984 20.7135C23.3077 20.7169 23.3156 20.723 23.3212 20.7309C23.3267 20.7389 23.3295 20.7483 23.3292 20.7578L23.2813 22.6997C23.2811 22.7069 23.2793 22.7139 23.2758 22.7202C23.2723 22.7265 23.2674 22.732 23.2613 22.7361L22.1371 23.5149C22.1295 23.5203 22.1205 23.5233 22.1111 23.5236C22.1017 23.5239 22.0924 23.5216 22.0844 23.5168C21.9942 23.4626 21.8958 23.4063 21.7927 23.3472ZM21.4544 22.0735C21.8146 22.3398 22.181 22.5982 22.5535 22.8486C22.6044 22.8827 22.6293 22.8698 22.628 22.8099L22.5919 20.6407C22.5918 20.6333 22.5897 20.626 22.5861 20.6195C22.5824 20.6129 22.5771 20.6073 22.5707 20.6032C22.5644 20.599 22.5571 20.5964 22.5494 20.5956C22.5418 20.5947 22.5341 20.5957 22.5269 20.5983C22.1238 20.7509 20.664 21.49 21.4544 22.0735ZM23.4793 27.5085C23.2219 27.2836 22.8996 26.9619 22.7045 26.7573C22.6963 26.7491 22.6917 26.7382 22.6916 26.7269L22.6556 24.4527C22.6554 24.445 22.6573 24.4373 22.6609 24.4305C22.6646 24.4236 22.6699 24.4178 22.6765 24.4135L23.748 23.7191C23.7562 23.7138 23.7659 23.7111 23.7757 23.7113C23.7856 23.7116 23.7951 23.7148 23.803 23.7205C24.4834 24.2168 25.4096 25.1016 24.8992 26.0099C24.5751 26.5868 24.1219 27.0871 23.5396 27.5108C23.5307 27.5173 23.5199 27.5206 23.5089 27.5202C23.4979 27.5198 23.4874 27.5156 23.4793 27.5085ZM23.5903 24.5269C23.5033 24.4529 23.4126 24.383 23.3183 24.3172C23.2696 24.2831 23.2444 24.2953 23.2428 24.3536L23.1859 26.89C23.1843 26.9527 23.206 26.9616 23.2509 26.9168C23.4218 26.746 23.5881 26.5712 23.7499 26.3923C23.9322 26.1905 24.0642 26.0071 24.1458 25.8421C24.4121 25.3034 23.9773 24.8546 23.5903 24.5269ZM22.4608 30.9952C22.5107 31.0416 22.5602 31.0877 22.609 31.1338C22.6139 31.1384 22.6197 31.142 22.6262 31.1442C22.6326 31.1464 22.6394 31.1473 22.6462 31.1467C22.6531 31.1462 22.6597 31.1442 22.6656 31.1409C22.6715 31.1376 22.6767 31.1332 22.6807 31.1278L23.0899 30.5812C23.0958 30.5734 23.0989 30.5642 23.0989 30.555L23.1459 28.4448C23.1461 28.4383 23.1449 28.4319 23.1423 28.4259C23.1398 28.42 23.136 28.4146 23.1312 28.4103L22.4286 27.7665C22.4197 27.7583 22.4079 27.7537 22.3955 27.7539C22.3832 27.7541 22.3714 27.7589 22.3626 27.7674L22.3463 27.7833C21.9152 28.2035 21.2952 28.8078 21.3931 29.4485C21.4915 30.0925 21.9887 30.5555 22.4608 30.9952ZM22.1684 28.8803C22.3045 28.6963 22.4615 28.5192 22.6394 28.349C22.6922 28.2986 22.7191 28.3094 22.7201 28.3812L22.7552 30.6407C22.7562 30.7141 22.7334 30.7218 22.6868 30.6637C22.589 30.5411 22.4841 30.4115 22.3721 30.2748C22.1433 29.9964 21.932 29.6541 22.0151 29.2918C22.0603 29.0946 22.1114 28.9574 22.1684 28.8803ZM23.0125 34.0863C23.0309 33.3287 23.0502 32.5756 23.0704 31.8269C23.0733 31.7243 23.1026 31.7166 23.1583 31.8038C23.4086 32.1952 23.4276 32.5966 23.2152 33.008C23.2121 33.0141 23.2105 33.0201 23.2105 33.0259C23.2105 33.0309 23.2108 33.0355 23.2114 33.0398C23.2122 33.043 23.2137 33.0459 23.216 33.0484C23.2182 33.0509 23.221 33.0527 23.2242 33.0538C23.2274 33.0549 23.2308 33.0552 23.2341 33.0547C23.2375 33.0542 23.2406 33.0529 23.2433 33.0508C23.5414 32.813 23.5599 32.2232 23.4555 31.8988C23.408 31.751 23.342 31.6098 23.2575 31.4752C23.2536 31.4691 23.2484 31.464 23.2422 31.4601C23.2359 31.4563 23.2289 31.4539 23.2216 31.4532C23.2143 31.4524 23.2069 31.4533 23.2 31.4558C23.1932 31.4582 23.187 31.4622 23.182 31.4674C23.044 31.6112 22.9269 31.7702 22.8307 31.9444C22.7981 32.0034 22.7823 32.0691 22.7832 32.1416C22.7937 32.7539 22.803 33.3662 22.8112 33.9785C22.8125 34.0694 22.8185 34.1424 22.8293 34.1974C22.8407 34.2554 22.8557 34.3124 22.8744 34.3683C22.9006 34.4454 22.925 34.4448 22.9475 34.3665C22.9586 34.3266 22.9706 34.2869 22.9836 34.2476C23.0019 34.1926 23.0116 34.1388 23.0125 34.0863Z" fill="url(#paint1_linear_1_4905)"/><path d="M10.4578 29.8555V26.8126H11.1092V28.0512H12.2621V26.8126H12.9135V29.8555H12.2621V28.5998H11.1092V29.8555H10.4578ZM13.4879 29.8555V26.8126H14.1393V29.8555H13.4879ZM14.7142 29.8555V26.8126H15.9313C16.6599 26.8126 17.1013 27.1898 17.1013 27.8069C17.1013 28.424 16.6599 28.8055 15.9313 28.8055H15.3656V29.8555H14.7142ZM15.3656 28.2569H15.8928C16.2356 28.2569 16.4328 28.1026 16.4328 27.8069C16.4328 27.5112 16.2356 27.3612 15.8928 27.3612H15.3656V28.2569ZM17.0022 29.8555L18.0993 26.8126H18.8708L19.9679 29.8555H19.2908L19.0679 29.2083H17.8979L17.675 29.8555H17.0022ZM18.0822 28.6726H18.8879L18.485 27.4983L18.0822 28.6726ZM20.1328 29.8555L21.2299 26.8126H22.0013L23.0985 29.8555H22.4213L22.1985 29.2083H21.0285L20.8056 29.8555H20.1328ZM21.2128 28.6726H22.0185L21.6156 27.4983L21.2128 28.6726ZM11.7478 33.924C10.9163 33.924 10.3206 33.3326 10.3206 32.3383C10.3206 31.3698 10.8821 30.744 11.7606 30.744C12.5578 30.744 12.9863 31.1512 13.1149 31.8755L12.4378 31.9012C12.3692 31.5198 12.1378 31.2926 11.7606 31.2926C11.2763 31.2926 10.9935 31.704 10.9935 32.3383C10.9935 32.9812 11.2892 33.3755 11.7563 33.3755C12.1635 33.3755 12.3863 33.1312 12.4463 32.7198L13.1278 32.7455C13.0035 33.4869 12.5406 33.924 11.7478 33.924ZM14.9508 33.924C14.0251 33.924 13.4679 33.3198 13.4679 32.3383C13.4679 31.3569 14.0251 30.744 14.9508 30.744C15.8765 30.744 16.4337 31.3569 16.4337 32.3383C16.4337 33.3198 15.8765 33.924 14.9508 33.924ZM14.9508 33.3755C15.4565 33.3755 15.7608 32.9983 15.7608 32.3383C15.7608 31.6783 15.4565 31.2926 14.9508 31.2926C14.4408 31.2926 14.1408 31.6783 14.1408 32.3383C14.1408 32.9983 14.4408 33.3755 14.9508 33.3755ZM16.8654 33.8555V30.8126H17.7354L18.5111 33.0283L19.2826 30.8126H20.1526V33.8555H19.5011V31.884L18.7854 33.8469H18.2283L17.5168 31.884V33.8555H16.8654ZM20.7284 33.8555V30.8126H21.9456C22.6741 30.8126 23.1156 31.1898 23.1156 31.8069C23.1156 32.424 22.6741 32.8055 21.9456 32.8055H21.3798V33.8555H20.7284ZM21.3798 32.2569H21.907C22.2498 32.2569 22.447 32.1026 22.447 31.8069C22.447 31.5112 22.2498 31.3612 21.907 31.3612H21.3798V32.2569ZM23.6079 33.8555V30.8126H24.2593V33.3069H25.6607V33.8555H23.6079ZM25.9935 33.8555V30.8126H26.6449V33.8555H25.9935ZM27.0008 33.8555L28.0979 30.8126H28.8694L29.9665 33.8555H29.2894L29.0665 33.2083H27.8965L27.6736 33.8555H27.0008ZM28.0808 32.6726H28.8865L28.4836 31.4983L28.0808 32.6726ZM30.2541 33.8555V30.8126H30.9741L32.1827 32.9126V30.8126H32.8341V33.8555H32.1055L30.9055 31.8283V33.8555H30.2541ZM33.9856 33.8555V31.3612H33.077V30.8126H35.5541V31.3612H34.6413V33.8555H33.9856Z" fill="#101828"/></g><defs><linearGradient id="paint0_linear_1_4905" x1="9.88803" y1="6.55415" x2="36.0447" y2="35.5773" gradientUnits="userSpaceOnUse"><stop stop-color="#E5E7EB"/><stop offset="1" stop-color="#F9FAFB"/></linearGradient><linearGradient id="paint1_linear_1_4905" x1="30.5498" y1="10.0698" x2="20.9753" y2="31.2119" gradientUnits="userSpaceOnUse"><stop offset="0.473541" stop-color="#364153" stop-opacity="0.7"/><stop offset="0.811446" stop-color="#364153" stop-opacity="0"/></linearGradient></defs></svg>